{
  "accessors": [
    {
      "bufferView": 2,
      "componentType": 5126,
      "count": 62083,
      "max": [
        0.28927698731422424,
        0.751114010810852,
        1.769927978515625
      ],
      "min": [
        -0.38528400659561157,
        -0.8346999883651733,
        0.003539999946951866
      ],
      "type": "VEC3"
    },
    {
      "bufferView": 2,
      "byteOffset": 744996,
      "componentType": 5126,
      "count": 62083,
      "max": [
        0.9999994039535522,
        0.9999921321868896,
        0.999982476234436
      ],
      "min": [
        -0.9999998807907104,
        -0.9999065399169922,
        -0.9999997615814209
      ],
      "type": "VEC3"
    },
    {
      "bufferView": 3,
      "componentType": 5126,
      "count": 62083,
      "max": [
        0.999997615814209,
        0.9997774362564087,
        0.9999832510948181,
        1.0
      ],
      "min": [
        -0.9999845623970032,
        -0.999997615814209,
        -0.9999151825904846,
        -1.0
      ],
      "type": "VEC4"
    },
    {
      "bufferView": 1,
      "componentType": 5126,
      "count": 62083,
      "max": [
        0.9999449849128723,
        0.9943400025367737
      ],
      "min": [
        4.999999873689376e-05,
        5.900000178371556e-05
      ],
      "type": "VEC2"
    },
    {
      "bufferView": 0,
      "componentType": 5125,
      "count": 354204,
      "type": "SCALAR"
    }
  ],
  "asset": {
    "extras": {
      "author": "Lassi Kaukonen (https://sketchfab.com/thesidekick)",
      "license": "CC-BY-4.0 (http://creativecommons.org/licenses/by/4.0/)",
      "source": "https://sketchfab.com/3d-models/bosch-psr1800-li-2-dd14ccedba4d4ab5892e2b974ec00317",
      "title": "Bosch PSR1800 LI-2"
    },
    "generator": "Sketchfab-12.68.0",
    "version": "2.0"
  },
  "bufferViews": [
    {
      "buffer": 0,
      "byteLength": 1416816,
      "name": "floatBufferViews",
      "target": 34963
    },
    {
      "buffer": 0,
      "byteLength": 496664,
      "byteOffset": 1416816,
      "byteStride": 8,
      "name": "floatBufferViews",
      "target": 34962
    },
    {
      "buffer": 0,
      "byteLength": 1489992,
      "byteOffset": 1913480,
      "byteStride": 12,
      "name": "floatBufferViews",
      "target": 34962
    },
    {
      "buffer": 0,
      "byteLength": 993328,
      "byteOffset": 3403472,
      "byteStride": 16,
      "name": "floatBufferViews",
      "target": 34962
    }
  ],
  "buffers": [
    {
      "byteLength": 4396800,
      "uri": "scene.bin"
    }
  ],
  "extensionsRequired": [
    "KHR_materials_pbrSpecularGlossiness"
  ],
  "extensionsUsed": [
    "KHR_materials_pbrSpecularGlossiness"
  ],
  "images": [
    {
      "uri": "textures/Bosch_PSR1800_LI-2_diffuse.jpeg"
    },
    {
      "uri": "textures/Bosch_PSR1800_LI-2_specularGlossiness.jpeg"
    },
    {
      "uri": "textures/Bosch_PSR1800_LI-2_normal.png"
    },
    {
      "uri": "textures/Bosch_PSR1800_LI-2_occlusion.png"
    }
  ],
  "materials": [
    {
      "doubleSided": true,
      "extensions": {
        "KHR_materials_pbrSpecularGlossiness": {
          "diffuseFactor": [
            1.0,
            1.0,
            1.0,
            1.0
          ],
          "diffuseTexture": {
            "index": 0
          },
          "glossinessFactor": 0.3726187363569478,
          "specularFactor": [
            1.0,
            1.0,
            1.0
          ],
          "specularGlossinessTexture": {
            "index": 1
          }
        }
      },
      "name": "Bosch_PSR1800_LI-2",
      "normalTexture": {
        "index": 2,
        "scale": 0.7860906233088695
      },
      "occlusionTexture": {
        "index": 3
      }
    }
  ],
  "meshes": [
    {
      "name": "Object_0",
      "primitives": [
        {
          "attributes": {
            "NORMAL": 1,
            "POSITION": 0,
            "TANGENT": 2,
            "TEXCOORD_0": 3
          },
          "indices": 4,
          "material": 0,
          "mode": 4
        }
      ]
    }
  ],
  "nodes": [
    {
      "children": [
        1
      ],
      "matrix": [
        1.0,
        0.0,
        0.0,
        0.0,
        0.0,
        2.220446049250313e-16,
        -1.0,
        0.0,
        0.0,
        1.0,
        2.220446049250313e-16,
        0.0,
        0.0,
        0.0,
        0.0,
        1.0
      ],
      "name": "Sketchfab_model"
    },
    {
      "children": [
        2
      ],
      "name": "Bosch_PSR1800_LI-2_SF.obj.cleaner.materialmerger.gles"
    },
    {
      "mesh": 0,
      "name": "Object_2"
    }
  ],
  "samplers": [
    {
      "magFilter": 9729,
      "minFilter": 9987,
      "wrapS": 10497,
      "wrapT": 10497
    }
  ],
  "scene": 0,
  "scenes": [
    {
      "name": "Sketchfab_Scene",
      "nodes": [
        0
      ]
    }
  ],
  "textures": [
    {
      "sampler": 0,
      "source": 0
    },
    {
      "sampler": 0,
      "source": 1
    },
    {
      "sampler": 0,
      "source": 2
    },
    {
      "sampler": 0,
      "source": 3
    }
  ]
}
