{
  "accessors": [
    {
      "bufferView": 2,
      "componentType": 5126,
      "count": 65532,
      "max": [
        9.578168869018555,
        11.21275806427002,
        17.449453353881836
      ],
      "min": [
        -18.379728317260742,
        -9.1572847366333,
        0.5579969882965088
      ],
      "type": "VEC3"
    },
    {
      "bufferView": 2,
      "byteOffset": 786384,
      "componentType": 5126,
      "count": 65532,
      "max": [
        0.9997518658638,
        0.9999998807907104,
        0.9999998807907104
      ],
      "min": [
        -0.9999935030937195,
        -0.9999986290931702,
        -0.9999985694885254
      ],
      "type": "VEC3"
    },
    {
      "bufferView": 1,
      "componentType": 5126,
      "count": 65532,
      "max": [
        0.999625027179718,
        0.9880369901657104
      ],
      "min": [
        0.00024399999529123306,
        0.004162999801337719
      ],
      "type": "VEC2"
    },
    {
      "bufferView": 0,
      "componentType": 5125,
      "count": 311892,
      "type": "SCALAR"
    },
    {
      "bufferView": 2,
      "byteOffset": 1572768,
      "componentType": 5126,
      "count": 65532,
      "max": [
        9.442205429077148,
        11.253532409667969,
        17.49284553527832
      ],
      "min": [
        -19.387300491333008,
        -8.464397430419922,
        0.6700940132141113
      ],
      "type": "VEC3"
    },
    {
      "bufferView": 2,
      "byteOffset": 2359152,
      "componentType": 5126,
      "count": 65532,
      "max": [
        0.9999988675117493,
        0.9999995231628418,
        0.9999993443489075
      ],
      "min": [
        -0.999999463558197,
        -0.999891459941864,
        -0.9999942183494568
      ],
      "type": "VEC3"
    },
    {
      "bufferView": 1,
      "byteOffset": 524256,
      "componentType": 5126,
      "count": 65532,
      "max": [
        0.9996160268783569,
        0.986083984375
      ],
      "min": [
        0.00024399999529123306,
        0.004164999816566706
      ],
      "type": "VEC2"
    },
    {
      "bufferView": 0,
      "byteOffset": 1247568,
      "componentType": 5125,
      "count": 289344,
      "type": "SCALAR"
    },
    {
      "bufferView": 2,
      "byteOffset": 3145536,
      "componentType": 5126,
      "count": 65532,
      "max": [
        9.484457969665527,
        11.253532409667969,
        17.23754119873047
      ],
      "min": [
        -19.10883903503418,
        -5.283061981201172,
        0.5589500069618225
      ],
      "type": "VEC3"
    },
    {
      "bufferView": 2,
      "byteOffset": 3931920,
      "componentType": 5126,
      "count": 65532,
      "max": [
        0.9999714493751526,
        0.9999998807907104,
        0.9999977350234985
      ],
      "min": [
        -0.9999352097511292,
        -0.999695360660553,
        -0.9999988675117493
      ],
      "type": "VEC3"
    },
    {
      "bufferView": 1,
      "byteOffset": 1048512,
      "componentType": 5126,
      "count": 65532,
      "max": [
        0.9995989799499512,
        0.9792479872703552
      ],
      "min": [
        0.00024399999529123306,
        0.008067999966442585
      ],
      "type": "VEC2"
    },
    {
      "bufferView": 0,
      "byteOffset": 2404944,
      "componentType": 5125,
      "count": 296844,
      "type": "SCALAR"
    },
    {
      "bufferView": 2,
      "byteOffset": 4718304,
      "componentType": 5126,
      "count": 65532,
      "max": [
        8.997041702270508,
        10.580965995788574,
        17.294599533081055
      ],
      "min": [
        -19.38920783996582,
        -7.183309078216553,
        0.5552729964256287
      ],
      "type": "VEC3"
    },
    {
      "bufferView": 2,
      "byteOffset": 5504688,
      "componentType": 5126,
      "count": 65532,
      "max": [
        0.9990965127944946,
        0.9999986290931702,
        0.9999993443489075
      ],
      "min": [
        -0.9999977350234985,
        -0.9997745752334595,
        -1.0
      ],
      "type": "VEC3"
    },
    {
      "bufferView": 1,
      "byteOffset": 1572768,
      "componentType": 5126,
      "count": 65532,
      "max": [
        0.9997559785842896,
        0.9313449859619141
      ],
      "min": [
        0.00024399999529123306,
        0.006293000187724829
      ],
      "type": "VEC2"
    },
    {
      "bufferView": 0,
      "byteOffset": 3592320,
      "componentType": 5125,
      "count": 299385,
      "type": "SCALAR"
    },
    {
      "bufferView": 2,
      "byteOffset": 6291072,
      "componentType": 5126,
      "count": 65532,
      "max": [
        9.479545593261719,
        11.20554256439209,
        17.549715042114258
      ],
      "min": [
        -19.362655639648438,
        -9.181486129760742,
        0.6555690169334412
      ],
      "type": "VEC3"
    },
    {
      "bufferView": 2,
      "byteOffset": 7077456,
      "componentType": 5126,
      "count": 65532,
      "max": [
        0.9999988675117493,
        0.9999896287918091,
        1.0
      ],
      "min": [
        -0.999988853931427,
        -0.999999463558197,
        -0.9999992251396179
      ],
      "type": "VEC3"
    },
    {
      "bufferView": 1,
      "byteOffset": 2097024,
      "componentType": 5126,
      "count": 65532,
      "max": [
        0.9997460246086121,
        0.9856160283088684
      ],
      "min": [
        0.00024399999529123306,
        0.004271000158041716
      ],
      "type": "VEC2"
    },
    {
      "bufferView": 0,
      "byteOffset": 4789860,
      "componentType": 5125,
      "count": 282744,
      "type": "SCALAR"
    },
    {
      "bufferView": 2,
      "byteOffset": 7863840,
      "componentType": 5126,
      "count": 65532,
      "max": [
        22.754257202148438,
        11.240961074829102,
        17.542367935180664
      ],
      "min": [
        -19.151708602905273,
        -9.184555053710938,
        0.5823969841003418
      ],
      "type": "VEC3"
    },
    {
      "bufferView": 2,
      "byteOffset": 8650224,
      "componentType": 5126,
      "count": 65532,
      "max": [
        0.9999949932098389,
        0.9999992251396179,
        0.9999996423721313
      ],
      "min": [
        -0.9999832510948181,
        -0.9999956488609314,
        -0.9999778866767883
      ],
      "type": "VEC3"
    },
    {
      "bufferView": 1,
      "byteOffset": 2621280,
      "componentType": 5126,
      "count": 65532,
      "max": [
        0.9994999766349792,
        0.9694820046424866
      ],
      "min": [
        0.00024399999529123306,
        0.0002899999963119626
      ],
      "type": "VEC2"
    },
    {
      "bufferView": 0,
      "byteOffset": 5920836,
      "componentType": 5125,
      "count": 303213,
      "type": "SCALAR"
    },
    {
      "bufferView": 2,
      "byteOffset": 9436608,
      "componentType": 5126,
      "count": 65532,
      "max": [
        22.778690338134766,
        11.245753288269043,
        17.361406326293945
      ],
      "min": [
        9.202651977539063,
        -8.267739295959473,
        0.528689980506897
      ],
      "type": "VEC3"
    },
    {
      "bufferView": 2,
      "byteOffset": 10222992,
      "componentType": 5126,
      "count": 65532,
      "max": [
        0.9999889731407166,
        0.9999967813491821,
        0.9999998807907104
      ],
      "min": [
        -0.9999978542327881,
        -0.9999926686286926,
        -0.9999997615814209
      ],
      "type": "VEC3"
    },
    {
      "bufferView": 1,
      "byteOffset": 3145536,
      "componentType": 5126,
      "count": 65532,
      "max": [
        0.9997169971466064,
        0.3767090141773224
      ],
      "min": [
        0.00024399999529123306,
        0.00025099999038502574
      ],
      "type": "VEC2"
    },
    {
      "bufferView": 0,
      "byteOffset": 7133688,
      "componentType": 5125,
      "count": 305907,
      "type": "SCALAR"
    },
    {
      "bufferView": 2,
      "byteOffset": 11009376,
      "componentType": 5126,
      "count": 65532,
      "max": [
        22.754793167114258,
        11.203685760498047,
        17.347087860107422
      ],
      "min": [
        9.251751899719238,
        -9.155516624450684,
        0.5241810083389282
      ],
      "type": "VEC3"
    },
    {
      "bufferView": 2,
      "byteOffset": 11795760,
      "componentType": 5126,
      "count": 65532,
      "max": [
        0.9999883770942688,
        0.999984622001648,
        0.9999989867210388
      ],
      "min": [
        -0.9999906420707703,
        -0.9999988675117493,
        -0.9999995231628418
      ],
      "type": "VEC3"
    },
    {
      "bufferView": 1,
      "byteOffset": 3669792,
      "componentType": 5126,
      "count": 65532,
      "max": [
        0.9996349811553955,
        0.39038100838661194
      ],
      "min": [
        0.00024399999529123306,
        0.0002460000105202198
      ],
      "type": "VEC2"
    },
    {
      "bufferView": 0,
      "byteOffset": 8357316,
      "componentType": 5125,
      "count": 303156,
      "type": "SCALAR"
    },
    {
      "bufferView": 2,
      "byteOffset": 12582144,
      "componentType": 5126,
      "count": 65532,
      "max": [
        22.77131462097168,
        11.245753288269043,
        17.363054275512695
      ],
      "min": [
        -18.253929138183594,
        -9.672844886779785,
        0.5272520184516907
      ],
      "type": "VEC3"
    },
    {
      "bufferView": 2,
      "byteOffset": 13368528,
      "componentType": 5126,
      "count": 65532,
      "max": [
        0.9999955892562866,
        0.999995231628418,
        0.9999998807907104
      ],
      "min": [
        -0.9999932646751404,
        -0.9999988675117493,
        -0.9999997615814209
      ],
      "type": "VEC3"
    },
    {
      "bufferView": 1,
      "byteOffset": 4194048,
      "componentType": 5126,
      "count": 65532,
      "max": [
        0.9997550249099731,
        0.9353029727935791
      ],
      "min": [
        0.00024399999529123306,
        0.00024500000290572643
      ],
      "type": "VEC2"
    },
    {
      "bufferView": 0,
      "byteOffset": 9569940,
      "componentType": 5125,
      "count": 248745,
      "type": "SCALAR"
    },
    {
      "bufferView": 2,
      "byteOffset": 14154912,
      "componentType": 5126,
      "count": 65532,
      "max": [
        8.989236831665039,
        0.8068779706954956,
        9.733022689819336
      ],
      "min": [
        -19.36628532409668,
        -9.671917915344238,
        0.5674949884414673
      ],
      "type": "VEC3"
    },
    {
      "bufferView": 2,
      "byteOffset": 14941296,
      "componentType": 5126,
      "count": 65532,
      "max": [
        0.999971330165863,
        0.995053231716156,
        0.9993869066238403
      ],
      "min": [
        -0.9999904632568359,
        -0.9999960064888,
        -0.9999998807907104
      ],
      "type": "VEC3"
    },
    {
      "bufferView": 1,
      "byteOffset": 4718304,
      "componentType": 5126,
      "count": 65532,
      "max": [
        0.9997130036354065,
        0.9470210075378418
      ],
      "min": [
        0.00024399999529123306,
        0.0041809999383986
      ],
      "type": "VEC2"
    },
    {
      "bufferView": 0,
      "byteOffset": 10564920,
      "componentType": 5125,
      "count": 284826,
      "type": "SCALAR"
    },
    {
      "bufferView": 2,
      "byteOffset": 15727680,
      "componentType": 5126,
      "count": 21906,
      "max": [
        9.539051055908203,
        10.081222534179688,
        17.303356170654297
      ],
      "min": [
        -19.36702537536621,
        -9.160002708435059,
        0.5747069716453552
      ],
      "type": "VEC3"
    },
    {
      "bufferView": 2,
      "byteOffset": 15990552,
      "componentType": 5126,
      "count": 21906,
      "max": [
        0.9996804594993591,
        0.9999193549156189,
        0.9999996423721313
      ],
      "min": [
        -0.9999935030937195,
        -0.9999971389770508,
        -0.9999985694885254
      ],
      "type": "VEC3"
    },
    {
      "bufferView": 1,
      "byteOffset": 5242560,
      "componentType": 5126,
      "count": 21906,
      "max": [
        0.9992759823799133,
        0.978967010974884
      ],
      "min": [
        0.00024399999529123306,
        0.004168999847024679
      ],
      "type": "VEC2"
    },
    {
      "bufferView": 0,
      "byteOffset": 11704224,
      "componentType": 5125,
      "count": 73854,
      "type": "SCALAR"
    }
  ],
  "asset": {
    "extras": {
      "author": "Metazeon (https://sketchfab.com/Metazeon)",
      "license": "CC-BY-4.0 (http://creativecommons.org/licenses/by/4.0/)",
      "source": "https://sketchfab.com/3d-models/tool-box-tool-kit-b2aea3753034490295a141ed1d896f48",
      "title": "Tool box, tool kit"
    },
    "generator": "Sketchfab-16.56.0",
    "version": "2.0"
  },
  "bufferViews": [
    {
      "buffer": 0,
      "byteLength": 11999640,
      "name": "floatBufferViews",
      "target": 34963
    },
    {
      "buffer": 0,
      "byteLength": 5417808,
      "byteOffset": 11999640,
      "byteStride": 8,
      "name": "floatBufferViews",
      "target": 34962
    },
    {
      "buffer": 0,
      "byteLength": 16253424,
      "byteOffset": 17417448,
      "byteStride": 12,
      "name": "floatBufferViews",
      "target": 34962
    }
  ],
  "buffers": [
    {
      "byteLength": 33670872,
      "uri": "scene.bin"
    }
  ],
  "extensionsUsed": [
    "KHR_materials_specular"
  ],
  "images": [
    {
      "uri": "textures/Toolbox_RC_LOD0_u0_v0_baseColor.png"
    }
  ],
  "materials": [
    {
      "doubleSided": true,
      "extensions": {
        "KHR_materials_specular": {
          "specularColorFactor": [
            1.0,
            1.0,
            1.0
          ],
          "specularFactor": 0.1
        }
      },
      "name": "Toolbox_RC_LOD0_u0_v0",
      "pbrMetallicRoughness": {
        "baseColorTexture": {
          "index": 0
        },
        "metallicFactor": 0.1,
        "roughnessFactor": 0.9
      }
    }
  ],
  "meshes": [
    {
      "name": "Object_0",
      "primitives": [
        {
          "attributes": {
            "NORMAL": 1,
            "POSITION": 0,
            "TEXCOORD_0": 2
          },
          "indices": 3,
          "material": 0,
          "mode": 4
        }
      ]
    },
    {
      "name": "Object_1",
      "primitives": [
        {
          "attributes": {
            "NORMAL": 5,
            "POSITION": 4,
            "TEXCOORD_0": 6
          },
          "indices": 7,
          "material": 0,
          "mode": 4
        }
      ]
    },
    {
      "name": "Object_2",
      "primitives": [
        {
          "attributes": {
            "NORMAL": 9,
            "POSITION": 8,
            "TEXCOORD_0": 10
          },
          "indices": 11,
          "material": 0,
          "mode": 4
        }
      ]
    },
    {
      "name": "Object_3",
      "primitives": [
        {
          "attributes": {
            "NORMAL": 13,
            "POSITION": 12,
            "TEXCOORD_0": 14
          },
          "indices": 15,
          "material": 0,
          "mode": 4
        }
      ]
    },
    {
      "name": "Object_4",
      "primitives": [
        {
          "attributes": {
            "NORMAL": 17,
            "POSITION": 16,
            "TEXCOORD_0": 18
          },
          "indices": 19,
          "material": 0,
          "mode": 4
        }
      ]
    },
    {
      "name": "Object_5",
      "primitives": [
        {
          "attributes": {
            "NORMAL": 21,
            "POSITION": 20,
            "TEXCOORD_0": 22
          },
          "indices": 23,
          "material": 0,
          "mode": 4
        }
      ]
    },
    {
      "name": "Object_6",
      "primitives": [
        {
          "attributes": {
            "NORMAL": 25,
            "POSITION": 24,
            "TEXCOORD_0": 26
          },
          "indices": 27,
          "material": 0,
          "mode": 4
        }
      ]
    },
    {
      "name": "Object_7",
      "primitives": [
        {
          "attributes": {
            "NORMAL": 29,
            "POSITION": 28,
            "TEXCOORD_0": 30
          },
          "indices": 31,
          "material": 0,
          "mode": 4
        }
      ]
    },
    {
      "name": "Object_8",
      "primitives": [
        {
          "attributes": {
            "NORMAL": 33,
            "POSITION": 32,
            "TEXCOORD_0": 34
          },
          "indices": 35,
          "material": 0,
          "mode": 4
        }
      ]
    },
    {
      "name": "Object_9",
      "primitives": [
        {
          "attributes": {
            "NORMAL": 37,
            "POSITION": 36,
            "TEXCOORD_0": 38
          },
          "indices": 39,
          "material": 0,
          "mode": 4
        }
      ]
    },
    {
      "name": "Object_10",
      "primitives": [
        {
          "attributes": {
            "NORMAL": 41,
            "POSITION": 40,
            "TEXCOORD_0": 42
          },
          "indices": 43,
          "material": 0,
          "mode": 4
        }
      ]
    }
  ],
  "nodes": [
    {
      "children": [
        1
      ],
      "matrix": [
        -1.0,
        6.290011496532519e-32,
        -2.832769343193999e-16,
        0.0,
        -2.832769343193999e-16,
        -2.220446049250313e-16,
        1.0,
        0.0,
        0.0,
        1.0,
        2.220446049250313e-16,
        0.0,
        0.0,
        0.0,
        0.0,
        1.0
      ],
      "name": "Sketchfab_model"
    },
    {
      "children": [
        2,
        3,
        4,
        5,
        6,
        7,
        8,
        9,
        10,
        11,
        12
      ],
      "name": "Toolbox_RC_LOD0.obj.cleaner.materialmerger.gles"
    },
    {
      "mesh": 0,
      "name": "Object_2"
    },
    {
      "mesh": 1,
      "name": "Object_3"
    },
    {
      "mesh": 2,
      "name": "Object_4"
    },
    {
      "mesh": 3,
      "name": "Object_5"
    },
    {
      "mesh": 4,
      "name": "Object_6"
    },
    {
      "mesh": 5,
      "name": "Object_7"
    },
    {
      "mesh": 6,
      "name": "Object_8"
    },
    {
      "mesh": 7,
      "name": "Object_9"
    },
    {
      "mesh": 8,
      "name": "Object_10"
    },
    {
      "mesh": 9,
      "name": "Object_11"
    },
    {
      "mesh": 10,
      "name": "Object_12"
    }
  ],
  "samplers": [
    {
      "magFilter": 9729,
      "minFilter": 9987,
      "wrapS": 10497,
      "wrapT": 10497
    }
  ],
  "scene": 0,
  "scenes": [
    {
      "name": "Sketchfab_Scene",
      "nodes": [
        0
      ]
    }
  ],
  "textures": [
    {
      "sampler": 0,
      "source": 0
    }
  ]
}
